<svg xmlns="http://www.w3.org/2000/svg" viewBox="0 0 800 600" fill="none">
  <!-- T Letter -->
  <path d="M148 252 L364 252 L364 272 L267 272 L267 448 L245 448 L245 272 L148 272 Z" fill="currentColor"/>
  
  <!-- D Letter (curved right side) -->
  <path d="M405 252 L405 448 L427 448 L427 448 
           C 527 448 595 380 595 290 
           C 595 200 527 252 427 252 
           L405 252 Z
           M427 272 
           C 515 272 573 210 573 290 
           C 573 370 515 428 427 428 
           L427 272 Z" fill="currentColor"/>
  
  <!-- Crown/decorative elements at top -->
  <g transform="translate(320, 170)">
    <rect x="0" y="0" width="4" height="12" fill="currentColor"/>
    <rect x="6" y="0" width="4" height="16" fill="currentColor"/>
    <rect x="12" y="0" width="4" height="14" fill="currentColor"/>
    <rect x="18" y="0" width="4" height="18" fill="currentColor"/>
    <rect x="24" y="0" width="4" height="12" fill="currentColor"/>
    <rect x="30" y="0" width="4" height="16" fill="currentColor"/>
    <rect x="36" y="0" width="4" height="14" fill="currentColor"/>
  </g>
  
  <!-- Outer circular element -->
  <path d="M 680 80 A 120 120 0 0 1 680 320" stroke="currentColor" stroke-width="2" fill="none"/>
  
  <!-- Inner circular element -->
  <path d="M 680 100 A 100 100 0 0 1 680 300" stroke="currentColor" stroke-width="2" fill="none"/>
</svg>